<mxfile host="app.diagrams.net" modified="2024-04-26T00:10:57.940Z" agent="Mozilla/5.0 (Windows NT 10.0; Win64; x64) AppleWebKit/537.36 (KHTML, like Gecko) Chrome/124.0.0.0 Safari/537.36" etag="H3wQthpCmc5hHplTotNV" version="24.3.0" type="device" pages="2">
  <diagram name="Page-1" id="60qaHbn31XIrSezGLiX6">
    <mxGraphModel dx="1050" dy="522" grid="0" gridSize="10" guides="1" tooltips="1" connect="1" arrows="1" fold="1" page="1" pageScale="1" pageWidth="850" pageHeight="1100" math="0" shadow="0">
      <root>
        <mxCell id="0" />
        <mxCell id="1" parent="0" />
        <mxCell id="Ao55XOItmPdOh4g7LSWc-74" value="Registar serviço AD" style="ellipse;whiteSpace=wrap;html=1;" vertex="1" parent="1">
          <mxGeometry x="349.5" y="790" width="108" height="66" as="geometry" />
        </mxCell>
        <mxCell id="Ao55XOItmPdOh4g7LSWc-53" value="" style="ellipse;whiteSpace=wrap;html=1;" vertex="1" parent="1">
          <mxGeometry x="340" y="490" width="108" height="66" as="geometry" />
        </mxCell>
        <mxCell id="Ao55XOItmPdOh4g7LSWc-45" value="" style="ellipse;whiteSpace=wrap;html=1;" vertex="1" parent="1">
          <mxGeometry x="322" y="1020" width="108" height="66" as="geometry" />
        </mxCell>
        <mxCell id="Ao55XOItmPdOh4g7LSWc-11" value="" style="ellipse;whiteSpace=wrap;html=1;" vertex="1" parent="1">
          <mxGeometry x="303" y="217" width="108" height="66" as="geometry" />
        </mxCell>
        <mxCell id="Ao55XOItmPdOh4g7LSWc-8" value="" style="ellipse;whiteSpace=wrap;html=1;" vertex="1" parent="1">
          <mxGeometry x="298" y="129" width="108" height="66" as="geometry" />
        </mxCell>
        <mxCell id="Ao55XOItmPdOh4g7LSWc-1" value="Gestor" style="shape=umlActor;verticalLabelPosition=bottom;verticalAlign=top;html=1;outlineConnect=0;" vertex="1" parent="1">
          <mxGeometry x="101" y="87" width="30" height="60" as="geometry" />
        </mxCell>
        <mxCell id="Ao55XOItmPdOh4g7LSWc-2" value="" style="endArrow=none;html=1;rounded=0;" edge="1" parent="1">
          <mxGeometry width="50" height="50" relative="1" as="geometry">
            <mxPoint x="146" y="96" as="sourcePoint" />
            <mxPoint x="300" y="94" as="targetPoint" />
          </mxGeometry>
        </mxCell>
        <mxCell id="Ao55XOItmPdOh4g7LSWc-3" value="Consultar Lista de Utentes" style="text;html=1;align=center;verticalAlign=middle;whiteSpace=wrap;rounded=0;" vertex="1" parent="1">
          <mxGeometry x="317" y="147" width="60" height="30" as="geometry" />
        </mxCell>
        <mxCell id="Ao55XOItmPdOh4g7LSWc-6" value="" style="ellipse;whiteSpace=wrap;html=1;" vertex="1" parent="1">
          <mxGeometry x="291" y="54" width="108" height="66" as="geometry" />
        </mxCell>
        <mxCell id="Ao55XOItmPdOh4g7LSWc-5" value="Saber estatísticas globais" style="text;html=1;align=center;verticalAlign=middle;whiteSpace=wrap;rounded=0;" vertex="1" parent="1">
          <mxGeometry x="315" y="67" width="60" height="30" as="geometry" />
        </mxCell>
        <mxCell id="Ao55XOItmPdOh4g7LSWc-7" value="" style="endArrow=none;html=1;rounded=0;" edge="1" parent="1">
          <mxGeometry width="50" height="50" relative="1" as="geometry">
            <mxPoint x="147" y="100" as="sourcePoint" />
            <mxPoint x="299" y="158" as="targetPoint" />
          </mxGeometry>
        </mxCell>
        <mxCell id="Ao55XOItmPdOh4g7LSWc-9" value="Filtrar Utentes através de campos" style="text;html=1;align=center;verticalAlign=middle;whiteSpace=wrap;rounded=0;" vertex="1" parent="1">
          <mxGeometry x="322" y="237" width="60" height="30" as="geometry" />
        </mxCell>
        <mxCell id="Ao55XOItmPdOh4g7LSWc-10" value="" style="endArrow=none;html=1;rounded=0;" edge="1" parent="1">
          <mxGeometry width="50" height="50" relative="1" as="geometry">
            <mxPoint x="147" y="101" as="sourcePoint" />
            <mxPoint x="306" y="246" as="targetPoint" />
          </mxGeometry>
        </mxCell>
        <mxCell id="Ao55XOItmPdOh4g7LSWc-12" value="" style="endArrow=none;html=1;rounded=0;exitX=1;exitY=0.5;exitDx=0;exitDy=0;" edge="1" parent="1" source="Ao55XOItmPdOh4g7LSWc-11">
          <mxGeometry width="50" height="50" relative="1" as="geometry">
            <mxPoint x="415" y="227" as="sourcePoint" />
            <mxPoint x="526" y="227" as="targetPoint" />
          </mxGeometry>
        </mxCell>
        <mxCell id="Ao55XOItmPdOh4g7LSWc-13" value="Serviço ativo/inativo" style="text;html=1;align=center;verticalAlign=middle;whiteSpace=wrap;rounded=0;" vertex="1" parent="1">
          <mxGeometry x="538" y="213" width="60" height="30" as="geometry" />
        </mxCell>
        <mxCell id="Ao55XOItmPdOh4g7LSWc-14" value="" style="endArrow=none;html=1;rounded=0;" edge="1" parent="1">
          <mxGeometry width="50" height="50" relative="1" as="geometry">
            <mxPoint x="399" y="83.5" as="sourcePoint" />
            <mxPoint x="514" y="80.5" as="targetPoint" />
          </mxGeometry>
        </mxCell>
        <mxCell id="Ao55XOItmPdOh4g7LSWc-15" value="nº utentes activo" style="text;html=1;align=center;verticalAlign=middle;whiteSpace=wrap;rounded=0;" vertex="1" parent="1">
          <mxGeometry x="524" y="57" width="60" height="30" as="geometry" />
        </mxCell>
        <mxCell id="Ao55XOItmPdOh4g7LSWc-17" value="" style="endArrow=none;html=1;rounded=0;" edge="1" parent="1" source="Ao55XOItmPdOh4g7LSWc-11">
          <mxGeometry width="50" height="50" relative="1" as="geometry">
            <mxPoint x="431" y="256" as="sourcePoint" />
            <mxPoint x="524" y="285" as="targetPoint" />
          </mxGeometry>
        </mxCell>
        <mxCell id="Ao55XOItmPdOh4g7LSWc-18" value="Tipo de Serviço" style="text;html=1;align=center;verticalAlign=middle;whiteSpace=wrap;rounded=0;" vertex="1" parent="1">
          <mxGeometry x="536" y="283" width="60" height="30" as="geometry" />
        </mxCell>
        <mxCell id="Ao55XOItmPdOh4g7LSWc-19" value="" style="endArrow=none;html=1;rounded=0;" edge="1" parent="1">
          <mxGeometry width="50" height="50" relative="1" as="geometry">
            <mxPoint x="603" y="297.5" as="sourcePoint" />
            <mxPoint x="664" y="297.5" as="targetPoint" />
          </mxGeometry>
        </mxCell>
        <mxCell id="Ao55XOItmPdOh4g7LSWc-20" value="&lt;span style=&quot;color: rgb(0, 0, 0); font-family: Helvetica; font-size: 12px; font-style: normal; font-variant-ligatures: normal; font-variant-caps: normal; font-weight: 400; letter-spacing: normal; orphans: 2; text-align: center; text-indent: 0px; text-transform: none; widows: 2; word-spacing: 0px; -webkit-text-stroke-width: 0px; white-space: normal; background-color: rgb(251, 251, 251); text-decoration-thickness: initial; text-decoration-style: initial; text-decoration-color: initial; display: inline !important; float: none;&quot;&gt;AD, Medicina, Enfermagem, Fisioterapia, Terapia da Fala, Nutrição, Outros...&lt;/span&gt;" style="text;whiteSpace=wrap;html=1;" vertex="1" parent="1">
          <mxGeometry x="670" y="277" width="167" height="36" as="geometry" />
        </mxCell>
        <mxCell id="Ao55XOItmPdOh4g7LSWc-21" value="Técnica Responsável" style="text;html=1;align=center;verticalAlign=middle;whiteSpace=wrap;rounded=0;" vertex="1" parent="1">
          <mxGeometry x="538" y="330" width="60" height="30" as="geometry" />
        </mxCell>
        <mxCell id="Ao55XOItmPdOh4g7LSWc-22" value="" style="endArrow=none;html=1;rounded=0;exitX=0.998;exitY=0.658;exitDx=0;exitDy=0;exitPerimeter=0;" edge="1" parent="1" source="Ao55XOItmPdOh4g7LSWc-11">
          <mxGeometry width="50" height="50" relative="1" as="geometry">
            <mxPoint x="422" y="252" as="sourcePoint" />
            <mxPoint x="522" y="324" as="targetPoint" />
          </mxGeometry>
        </mxCell>
        <mxCell id="Ao55XOItmPdOh4g7LSWc-23" value="Cuidadora" style="text;html=1;align=center;verticalAlign=middle;whiteSpace=wrap;rounded=0;fillColor=#fff2cc;strokeColor=#d6b656;" vertex="1" parent="1">
          <mxGeometry x="547" y="376" width="60" height="30" as="geometry" />
        </mxCell>
        <mxCell id="Ao55XOItmPdOh4g7LSWc-24" value="" style="endArrow=none;html=1;rounded=0;exitX=0.983;exitY=0.609;exitDx=0;exitDy=0;exitPerimeter=0;" edge="1" parent="1" source="Ao55XOItmPdOh4g7LSWc-11">
          <mxGeometry width="50" height="50" relative="1" as="geometry">
            <mxPoint x="432" y="262" as="sourcePoint" />
            <mxPoint x="534" y="379" as="targetPoint" />
          </mxGeometry>
        </mxCell>
        <mxCell id="Ao55XOItmPdOh4g7LSWc-25" value="&amp;nbsp;Profissional de Saúde&amp;nbsp;" style="text;html=1;align=center;verticalAlign=middle;whiteSpace=wrap;rounded=0;fillColor=#fff2cc;strokeColor=#d6b656;" vertex="1" parent="1">
          <mxGeometry x="549" y="436" width="60" height="30" as="geometry" />
        </mxCell>
        <mxCell id="Ao55XOItmPdOh4g7LSWc-27" value="" style="text;html=1;align=center;verticalAlign=middle;whiteSpace=wrap;rounded=0;fillColor=#fff2cc;strokeColor=#d6b656;" vertex="1" parent="1">
          <mxGeometry x="650" y="57" width="60" height="30" as="geometry" />
        </mxCell>
        <mxCell id="Ao55XOItmPdOh4g7LSWc-28" value="Estará na Folha de Escalas?" style="text;html=1;align=center;verticalAlign=middle;whiteSpace=wrap;rounded=0;" vertex="1" parent="1">
          <mxGeometry x="727" y="54" width="60" height="30" as="geometry" />
        </mxCell>
        <mxCell id="Ao55XOItmPdOh4g7LSWc-29" value="" style="endArrow=none;html=1;rounded=0;exitX=0.976;exitY=0.73;exitDx=0;exitDy=0;exitPerimeter=0;" edge="1" parent="1" source="Ao55XOItmPdOh4g7LSWc-11">
          <mxGeometry width="50" height="50" relative="1" as="geometry">
            <mxPoint x="406" y="283" as="sourcePoint" />
            <mxPoint x="537" y="480" as="targetPoint" />
          </mxGeometry>
        </mxCell>
        <mxCell id="Ao55XOItmPdOh4g7LSWc-30" value="Localidade" style="text;html=1;align=center;verticalAlign=middle;whiteSpace=wrap;rounded=0;" vertex="1" parent="1">
          <mxGeometry x="547" y="469" width="60" height="30" as="geometry" />
        </mxCell>
        <mxCell id="Ao55XOItmPdOh4g7LSWc-31" value="" style="endArrow=none;html=1;rounded=0;exitX=0.976;exitY=0.658;exitDx=0;exitDy=0;exitPerimeter=0;" edge="1" parent="1" source="Ao55XOItmPdOh4g7LSWc-11">
          <mxGeometry width="50" height="50" relative="1" as="geometry">
            <mxPoint x="432" y="275" as="sourcePoint" />
            <mxPoint x="534" y="442" as="targetPoint" />
          </mxGeometry>
        </mxCell>
        <mxCell id="Ao55XOItmPdOh4g7LSWc-32" value="" style="ellipse;whiteSpace=wrap;html=1;" vertex="1" parent="1">
          <mxGeometry x="340" y="643" width="108" height="66" as="geometry" />
        </mxCell>
        <mxCell id="Ao55XOItmPdOh4g7LSWc-33" value="Consultar Utente e seus dados individualmente" style="text;html=1;align=center;verticalAlign=middle;whiteSpace=wrap;rounded=0;" vertex="1" parent="1">
          <mxGeometry x="364" y="665" width="60" height="30" as="geometry" />
        </mxCell>
        <mxCell id="Ao55XOItmPdOh4g7LSWc-34" value="" style="endArrow=none;html=1;rounded=0;entryX=0;entryY=0;entryDx=0;entryDy=0;" edge="1" parent="1" target="Ao55XOItmPdOh4g7LSWc-32">
          <mxGeometry width="50" height="50" relative="1" as="geometry">
            <mxPoint x="147" y="104" as="sourcePoint" />
            <mxPoint x="316" y="532" as="targetPoint" />
          </mxGeometry>
        </mxCell>
        <mxCell id="Ao55XOItmPdOh4g7LSWc-35" value="" style="endArrow=none;html=1;rounded=0;exitX=1;exitY=0.5;exitDx=0;exitDy=0;" edge="1" parent="1" source="Ao55XOItmPdOh4g7LSWc-11">
          <mxGeometry width="50" height="50" relative="1" as="geometry">
            <mxPoint x="425" y="237" as="sourcePoint" />
            <mxPoint x="527" y="259" as="targetPoint" />
          </mxGeometry>
        </mxCell>
        <mxCell id="Ao55XOItmPdOh4g7LSWc-36" value="Nome/Número Utente" style="text;html=1;align=center;verticalAlign=middle;whiteSpace=wrap;rounded=0;" vertex="1" parent="1">
          <mxGeometry x="541" y="247" width="60" height="30" as="geometry" />
        </mxCell>
        <mxCell id="Ao55XOItmPdOh4g7LSWc-37" value="Dados Base" style="text;html=1;align=center;verticalAlign=middle;whiteSpace=wrap;rounded=0;" vertex="1" parent="1">
          <mxGeometry x="558" y="679" width="60" height="30" as="geometry" />
        </mxCell>
        <mxCell id="Ao55XOItmPdOh4g7LSWc-38" value="Contactos&lt;div&gt;Prioritários&lt;/div&gt;" style="text;html=1;align=center;verticalAlign=middle;whiteSpace=wrap;rounded=0;" vertex="1" parent="1">
          <mxGeometry x="569.5" y="718" width="60" height="30" as="geometry" />
        </mxCell>
        <mxCell id="Ao55XOItmPdOh4g7LSWc-39" value="" style="endArrow=none;html=1;rounded=0;" edge="1" parent="1">
          <mxGeometry width="50" height="50" relative="1" as="geometry">
            <mxPoint x="448" y="682" as="sourcePoint" />
            <mxPoint x="559" y="682" as="targetPoint" />
          </mxGeometry>
        </mxCell>
        <mxCell id="Ao55XOItmPdOh4g7LSWc-40" value="" style="endArrow=none;html=1;rounded=0;" edge="1" parent="1">
          <mxGeometry width="50" height="50" relative="1" as="geometry">
            <mxPoint x="449" y="686" as="sourcePoint" />
            <mxPoint x="551" y="732" as="targetPoint" />
          </mxGeometry>
        </mxCell>
        <mxCell id="Ao55XOItmPdOh4g7LSWc-41" value="Dados Clínicos" style="text;html=1;align=center;verticalAlign=middle;whiteSpace=wrap;rounded=0;" vertex="1" parent="1">
          <mxGeometry x="569.5" y="768" width="60" height="30" as="geometry" />
        </mxCell>
        <mxCell id="Ao55XOItmPdOh4g7LSWc-42" value="" style="endArrow=none;html=1;rounded=0;" edge="1" parent="1">
          <mxGeometry width="50" height="50" relative="1" as="geometry">
            <mxPoint x="448" y="689" as="sourcePoint" />
            <mxPoint x="563.5" y="778" as="targetPoint" />
          </mxGeometry>
        </mxCell>
        <mxCell id="Ao55XOItmPdOh4g7LSWc-43" value="Filtrar dentro da Ficha de Utente&amp;nbsp;&amp;nbsp;" style="text;html=1;align=center;verticalAlign=middle;whiteSpace=wrap;rounded=0;" vertex="1" parent="1">
          <mxGeometry x="343" y="1038" width="60" height="30" as="geometry" />
        </mxCell>
        <mxCell id="Ao55XOItmPdOh4g7LSWc-44" value="" style="endArrow=none;html=1;rounded=0;entryX=0.273;entryY=0.015;entryDx=0;entryDy=0;entryPerimeter=0;" edge="1" parent="1" target="Ao55XOItmPdOh4g7LSWc-45">
          <mxGeometry width="50" height="50" relative="1" as="geometry">
            <mxPoint x="157" y="114" as="sourcePoint" />
            <mxPoint x="328" y="885" as="targetPoint" />
          </mxGeometry>
        </mxCell>
        <mxCell id="Ao55XOItmPdOh4g7LSWc-46" value="Tipo de Serviço" style="text;html=1;align=center;verticalAlign=middle;whiteSpace=wrap;rounded=0;" vertex="1" parent="1">
          <mxGeometry x="528" y="1033" width="60" height="30" as="geometry" />
        </mxCell>
        <mxCell id="Ao55XOItmPdOh4g7LSWc-47" value="" style="endArrow=none;html=1;rounded=0;exitX=1;exitY=0.5;exitDx=0;exitDy=0;" edge="1" parent="1">
          <mxGeometry width="50" height="50" relative="1" as="geometry">
            <mxPoint x="430" y="1048.5" as="sourcePoint" />
            <mxPoint x="528" y="1049" as="targetPoint" />
          </mxGeometry>
        </mxCell>
        <mxCell id="Ao55XOItmPdOh4g7LSWc-48" value="&lt;span style=&quot;color: rgb(0, 0, 0); font-family: Helvetica; font-size: 12px; font-style: normal; font-variant-ligatures: normal; font-variant-caps: normal; font-weight: 400; letter-spacing: normal; orphans: 2; text-align: center; text-indent: 0px; text-transform: none; widows: 2; word-spacing: 0px; -webkit-text-stroke-width: 0px; white-space: normal; background-color: rgb(251, 251, 251); text-decoration-thickness: initial; text-decoration-style: initial; text-decoration-color: initial; display: inline !important; float: none;&quot;&gt;AD, Medicina, Enfermagem, Fisioterapia, Terapia da Fala, Nutrição, Outros...&lt;/span&gt;" style="text;whiteSpace=wrap;html=1;" vertex="1" parent="1">
          <mxGeometry x="660" y="1030" width="167" height="36" as="geometry" />
        </mxCell>
        <mxCell id="Ao55XOItmPdOh4g7LSWc-50" value="" style="endArrow=none;html=1;rounded=0;" edge="1" parent="1">
          <mxGeometry width="50" height="50" relative="1" as="geometry">
            <mxPoint x="591" y="1050" as="sourcePoint" />
            <mxPoint x="652" y="1050" as="targetPoint" />
          </mxGeometry>
        </mxCell>
        <mxCell id="Ao55XOItmPdOh4g7LSWc-52" value="Criar Novo Utente" style="text;html=1;align=center;verticalAlign=middle;whiteSpace=wrap;rounded=0;" vertex="1" parent="1">
          <mxGeometry x="368" y="508" width="60" height="30" as="geometry" />
        </mxCell>
        <mxCell id="Ao55XOItmPdOh4g7LSWc-54" value="" style="endArrow=none;html=1;rounded=0;entryX=0;entryY=0;entryDx=0;entryDy=0;" edge="1" parent="1" target="Ao55XOItmPdOh4g7LSWc-53">
          <mxGeometry width="50" height="50" relative="1" as="geometry">
            <mxPoint x="157" y="111" as="sourcePoint" />
            <mxPoint x="316" y="256" as="targetPoint" />
          </mxGeometry>
        </mxCell>
        <mxCell id="Ao55XOItmPdOh4g7LSWc-61" value="Dados Base" style="text;html=1;align=center;verticalAlign=middle;whiteSpace=wrap;rounded=0;" vertex="1" parent="1">
          <mxGeometry x="549" y="508" width="60" height="30" as="geometry" />
        </mxCell>
        <mxCell id="Ao55XOItmPdOh4g7LSWc-62" value="Contactos&amp;nbsp;&lt;span style=&quot;background-color: initial;&quot;&gt;Prioritários&lt;/span&gt;" style="text;html=1;align=center;verticalAlign=middle;whiteSpace=wrap;rounded=0;" vertex="1" parent="1">
          <mxGeometry x="558" y="570" width="114" height="37" as="geometry" />
        </mxCell>
        <mxCell id="Ao55XOItmPdOh4g7LSWc-63" value="" style="endArrow=none;html=1;rounded=0;" edge="1" parent="1">
          <mxGeometry width="50" height="50" relative="1" as="geometry">
            <mxPoint x="444" y="522" as="sourcePoint" />
            <mxPoint x="555" y="522" as="targetPoint" />
          </mxGeometry>
        </mxCell>
        <mxCell id="Ao55XOItmPdOh4g7LSWc-64" value="" style="endArrow=none;html=1;rounded=0;" edge="1" parent="1">
          <mxGeometry width="50" height="50" relative="1" as="geometry">
            <mxPoint x="445" y="526" as="sourcePoint" />
            <mxPoint x="547" y="585" as="targetPoint" />
          </mxGeometry>
        </mxCell>
        <mxCell id="Ao55XOItmPdOh4g7LSWc-65" value="Dados Clínicos" style="text;html=1;align=center;verticalAlign=middle;whiteSpace=wrap;rounded=0;" vertex="1" parent="1">
          <mxGeometry x="549" y="639" width="93" height="30" as="geometry" />
        </mxCell>
        <mxCell id="Ao55XOItmPdOh4g7LSWc-66" value="" style="endArrow=none;html=1;rounded=0;" edge="1" parent="1">
          <mxGeometry width="50" height="50" relative="1" as="geometry">
            <mxPoint x="444" y="529" as="sourcePoint" />
            <mxPoint x="543" y="626" as="targetPoint" />
          </mxGeometry>
        </mxCell>
        <mxCell id="Ao55XOItmPdOh4g7LSWc-68" value="" style="endArrow=none;html=1;rounded=0;" edge="1" parent="1">
          <mxGeometry width="50" height="50" relative="1" as="geometry">
            <mxPoint x="454" y="532" as="sourcePoint" />
            <mxPoint x="554" y="556" as="targetPoint" />
          </mxGeometry>
        </mxCell>
        <mxCell id="Ao55XOItmPdOh4g7LSWc-69" value="Atribuir moradas" style="text;html=1;align=center;verticalAlign=middle;whiteSpace=wrap;rounded=0;" vertex="1" parent="1">
          <mxGeometry x="554" y="544" width="60" height="30" as="geometry" />
        </mxCell>
        <mxCell id="Ao55XOItmPdOh4g7LSWc-75" value="" style="endArrow=none;html=1;rounded=0;entryX=0.097;entryY=0.179;entryDx=0;entryDy=0;entryPerimeter=0;" edge="1" parent="1" target="Ao55XOItmPdOh4g7LSWc-74">
          <mxGeometry width="50" height="50" relative="1" as="geometry">
            <mxPoint x="157" y="114" as="sourcePoint" />
            <mxPoint x="360" y="695" as="targetPoint" />
          </mxGeometry>
        </mxCell>
        <mxCell id="Ao55XOItmPdOh4g7LSWc-76" value="Registar serviço" style="ellipse;whiteSpace=wrap;html=1;" vertex="1" parent="1">
          <mxGeometry x="348" y="929" width="108" height="66" as="geometry" />
        </mxCell>
        <mxCell id="Ao55XOItmPdOh4g7LSWc-88" value="Subsistema" style="text;html=1;align=center;verticalAlign=middle;whiteSpace=wrap;rounded=0;" vertex="1" parent="1">
          <mxGeometry x="558" y="609" width="60" height="30" as="geometry" />
        </mxCell>
        <mxCell id="Ao55XOItmPdOh4g7LSWc-89" value="" style="endArrow=none;html=1;rounded=0;" edge="1" parent="1">
          <mxGeometry width="50" height="50" relative="1" as="geometry">
            <mxPoint x="454" y="539" as="sourcePoint" />
            <mxPoint x="541" y="656" as="targetPoint" />
          </mxGeometry>
        </mxCell>
        <mxCell id="iyWI9nusOReX6XPwrJik-1" value="Avaliação diagnóstica ou inicial" style="text;html=1;align=center;verticalAlign=middle;whiteSpace=wrap;rounded=0;" vertex="1" parent="1">
          <mxGeometry x="553" y="812" width="174" height="30" as="geometry" />
        </mxCell>
        <mxCell id="iyWI9nusOReX6XPwrJik-2" value="Escalas de dependência" style="text;html=1;align=center;verticalAlign=middle;whiteSpace=wrap;rounded=0;" vertex="1" parent="1">
          <mxGeometry x="538" y="835" width="167" height="30" as="geometry" />
        </mxCell>
        <mxCell id="iyWI9nusOReX6XPwrJik-3" value="Dados Sociais/Visitas Domiciliárias" style="text;html=1;align=center;verticalAlign=middle;whiteSpace=wrap;rounded=0;" vertex="1" parent="1">
          <mxGeometry x="541" y="865" width="215" height="30" as="geometry" />
        </mxCell>
        <mxCell id="iyWI9nusOReX6XPwrJik-4" value="" style="endArrow=none;html=1;rounded=0;" edge="1" parent="1">
          <mxGeometry width="50" height="50" relative="1" as="geometry">
            <mxPoint x="458.5" y="822.5" as="sourcePoint" />
            <mxPoint x="546" y="823" as="targetPoint" />
          </mxGeometry>
        </mxCell>
        <mxCell id="iyWI9nusOReX6XPwrJik-5" value="" style="endArrow=none;html=1;rounded=0;entryX=0;entryY=0.25;entryDx=0;entryDy=0;exitX=1;exitY=0.5;exitDx=0;exitDy=0;" edge="1" parent="1" source="Ao55XOItmPdOh4g7LSWc-74" target="iyWI9nusOReX6XPwrJik-2">
          <mxGeometry width="50" height="50" relative="1" as="geometry">
            <mxPoint x="468.5" y="832.5" as="sourcePoint" />
            <mxPoint x="556" y="833" as="targetPoint" />
          </mxGeometry>
        </mxCell>
        <mxCell id="iyWI9nusOReX6XPwrJik-6" value="" style="endArrow=none;html=1;rounded=0;entryX=0;entryY=0;entryDx=0;entryDy=0;exitX=0.975;exitY=0.606;exitDx=0;exitDy=0;exitPerimeter=0;" edge="1" parent="1" source="Ao55XOItmPdOh4g7LSWc-74" target="iyWI9nusOReX6XPwrJik-3">
          <mxGeometry width="50" height="50" relative="1" as="geometry">
            <mxPoint x="478.5" y="842.5" as="sourcePoint" />
            <mxPoint x="568" y="881" as="targetPoint" />
          </mxGeometry>
        </mxCell>
      </root>
    </mxGraphModel>
  </diagram>
  <diagram id="hP6ZSJbBW2dGcHTIYtp_" name="Page-2">
    <mxGraphModel dx="1050" dy="522" grid="0" gridSize="10" guides="1" tooltips="1" connect="1" arrows="1" fold="1" page="1" pageScale="1" pageWidth="850" pageHeight="1100" math="0" shadow="0">
      <root>
        <mxCell id="0" />
        <mxCell id="1" parent="0" />
      </root>
    </mxGraphModel>
  </diagram>
</mxfile>
